<svg xmlns="http://www.w3.org/2000/svg" height="512pt" version="1.1" viewBox="-71 0 512 512" width="512pt">
<g id="surface1">
<path d="M 341.582031 258.253906 C 341.46875 258.367188 196.863281 402.960938 195.449219 404.378906 C 189.503906 410.320312 179.898438 410.269531 174.003906 404.378906 C 172.507812 402.871094 171.03125 401.394531 169.566406 399.9375 L 169.566406 399.929688 C 21.371094 251.734375 30.1875 260.558594 27.882812 258.253906 C -9.234375 221.121094 -9.355469 160.875 27.882812 123.617188 C 65.066406 86.441406 125.34375 86.441406 162.519531 123.617188 C 165.664062 126.761719 167.855469 128.957031 169.566406 130.664062 L 184.730469 145.828125 L 199.894531 130.664062 C 201.605469 128.957031 203.796875 126.761719 206.941406 123.617188 C 244.117188 86.441406 304.394531 86.441406 341.582031 123.617188 C 378.753906 160.792969 378.753906 221.070312 341.582031 258.253906 Z M 341.582031 258.253906 " style=" stroke:none;fill-rule:nonzero;fill:rgb(49.411765%,84.705882%,96.470588%);fill-opacity:1;" />
<path d="M 341.582031 258.253906 C 341.46875 258.367188 196.863281 402.960938 195.449219 404.378906 C 192.503906 407.320312 188.671875 408.785156 184.84375 408.816406 L 184.84375 291.023438 L 188.199219 287.046875 L 184.84375 283.339844 L 184.84375 216.894531 L 190.859375 210.878906 L 184.84375 205.125 L 184.84375 145.71875 L 199.894531 130.664062 C 201.605469 128.957031 203.796875 126.761719 206.941406 123.617188 C 244.117188 86.441406 304.394531 86.441406 341.582031 123.617188 C 378.753906 160.792969 378.753906 221.070312 341.582031 258.253906 Z M 341.582031 258.253906 " style=" stroke:none;fill-rule:nonzero;fill:rgb(18.431373%,75.294118%,94.117647%);fill-opacity:1;" />
<path d="M 220.371094 276.332031 C 226.292969 282.257812 226.292969 291.851562 220.371094 297.773438 L 199.894531 320.855469 L 199.894531 399.929688 L 195.449219 404.378906 C 189.46875 410.355469 179.859375 410.238281 174.003906 404.378906 L 169.566406 399.9375 L 169.566406 314.578125 C 169.566406 310.554688 171.164062 306.691406 174.003906 303.851562 L 184.84375 291.023438 L 188.199219 287.046875 L 184.84375 283.339844 L 163.46875 259.710938 C 157.542969 253.796875 157.542969 244.191406 163.46875 238.265625 L 190.859375 210.878906 L 184.84375 205.125 L 174.257812 195.015625 C 171.253906 192.152344 169.566406 188.191406 169.566406 184.046875 L 169.566406 130.664062 L 184.730469 145.828125 L 199.894531 130.664062 L 199.894531 177.566406 L 223.027344 199.667969 C 229.164062 205.53125 229.296875 215.347656 223.269531 221.351562 L 195.640625 248.992188 Z M 220.371094 276.332031 " style=" stroke:none;fill-rule:nonzero;fill:rgb(74.509804%,92.156863%,98.039216%);fill-opacity:1;" />
<path d="M 199.894531 469.617188 L 199.894531 496.835938 C 199.894531 505.207031 193.101562 512 184.730469 512 C 184.507812 512 184.285156 512 184.0625 511.980469 C 175.996094 511.636719 169.566406 504.984375 169.566406 496.835938 L 169.566406 469.617188 C 169.566406 461.191406 176.410156 454.453125 184.730469 454.453125 C 193.101562 454.453125 199.894531 461.246094 199.894531 469.617188 Z M 199.894531 469.617188 " style=" stroke:none;fill-rule:nonzero;fill:rgb(49.411765%,84.705882%,96.470588%);fill-opacity:1;" />
<path d="M 245.910156 497.144531 L 220.765625 472 C 214.84375 466.078125 214.84375 456.476562 220.765625 450.554688 C 226.6875 444.632812 236.292969 444.632812 242.214844 450.554688 L 267.355469 475.695312 C 273.277344 481.617188 273.277344 491.21875 267.355469 497.144531 C 261.433594 503.066406 251.832031 503.066406 245.910156 497.144531 Z M 245.910156 497.144531 " style=" stroke:none;fill-rule:nonzero;fill:rgb(18.431373%,75.294118%,94.117647%);fill-opacity:1;" />
<path d="M 102.105469 497.144531 C 96.183594 491.21875 96.183594 481.617188 102.105469 475.695312 L 127.246094 450.554688 C 133.167969 444.632812 142.773438 444.632812 148.695312 450.554688 C 154.617188 456.476562 154.617188 466.078125 148.695312 472 L 123.550781 497.144531 C 117.632812 503.066406 108.027344 503.066406 102.105469 497.144531 Z M 102.105469 497.144531 " style=" stroke:none;fill-rule:nonzero;fill:rgb(49.411765%,84.705882%,96.470588%);fill-opacity:1;" />
<path d="M 199.230469 15.164062 L 199.230469 40.441406 C 199.230469 48.8125 192.433594 55.605469 184.0625 55.605469 C 175.683594 55.605469 168.898438 48.8125 168.898438 40.441406 L 168.898438 15.164062 C 168.898438 6.792969 175.683594 0 184.0625 0 C 192.433594 0 199.230469 6.792969 199.230469 15.164062 Z M 199.230469 15.164062 " style=" stroke:none;fill-rule:nonzero;fill:rgb(49.411765%,84.705882%,96.470588%);fill-opacity:1;" />
<path d="M 211.78125 61.621094 C 205.855469 55.695312 205.855469 46.09375 211.78125 40.171875 L 241.378906 10.570312 C 247.300781 4.648438 256.90625 4.648438 262.828125 10.570312 C 268.75 16.496094 268.75 26.097656 262.828125 32.019531 L 233.226562 61.621094 C 227.304688 67.542969 217.703125 67.542969 211.78125 61.621094 Z M 211.78125 61.621094 " style=" stroke:none;fill-rule:nonzero;fill:rgb(18.431373%,75.294118%,94.117647%);fill-opacity:1;" />
<path d="M 134.894531 61.621094 L 105.296875 32.019531 C 99.375 26.097656 99.375 16.496094 105.296875 10.570312 C 111.21875 4.648438 120.820312 4.652344 126.742188 10.570312 L 156.34375 40.171875 C 162.265625 46.09375 162.265625 55.695312 156.34375 61.621094 C 150.421875 67.542969 140.820312 67.542969 134.894531 61.621094 Z M 134.894531 61.621094 " style=" stroke:none;fill-rule:nonzero;fill:rgb(49.411765%,84.705882%,96.470588%);fill-opacity:1;" />
<path d="M 199.230469 15.164062 L 199.230469 40.441406 C 199.230469 48.8125 192.433594 55.605469 184.0625 55.605469 L 184.0625 0 C 192.433594 0 199.230469 6.792969 199.230469 15.164062 Z M 199.230469 15.164062 " style=" stroke:none;fill-rule:nonzero;fill:rgb(18.431373%,75.294118%,94.117647%);fill-opacity:1;" />
<path d="M 199.894531 469.617188 L 199.894531 496.835938 C 199.894531 505.207031 193.101562 512 184.730469 512 C 184.507812 512 184.285156 512 184.0625 511.980469 L 184.0625 454.472656 C 191.746094 453.773438 199.894531 460.414062 199.894531 469.617188 Z M 199.894531 469.617188 " style=" stroke:none;fill-rule:nonzero;fill:rgb(18.431373%,75.294118%,94.117647%);fill-opacity:1;" />
</g>
</svg>